<?xml version="1.0" encoding="utf-8"?>
<!-- Generator: Adobe Illustrator 25.1.0, SVG Export Plug-In . SVG Version: 6.00 Build 0)  -->
<svg version="1.1" id="Layer_1" xmlns="http://www.w3.org/2000/svg" xmlns:xlink="http://www.w3.org/1999/xlink" x="0px" y="0px"
	 viewBox="0 0 320.4 320.4" style="enable-background:new 0 0 320.4 320.4;" xml:space="preserve">
<style type="text/css">
	.st0{fill:#66CB66;}
	.st1{fill:#FEFEFE;}
	.st2{fill:#424242;}
	.st3{fill:#414141;}
	.st4{fill:#202020;}
	.st5{fill:#282828;}
	.st6{fill:#242424;}
	.st7{fill:#252525;}
	.st8{fill:#292929;}
	.st9{fill:#232323;}
</style>
<g>
	<path class="st0" d="M318.9,320.1c-104.9,0-209.8,0-314.6,0.1c-3.4,0-4.1-0.7-4.1-4.1C0.3,211.2,0.3,106.3,0.3,1.4
		C2,0.5,3.9,1,5.7,1c102.5,0,205.1,0,307.6,0c6.8,0,6.1-0.7,6.1,6.1c0,102.6,0,205.1,0,307.7C319.4,316.5,319.8,318.4,318.9,320.1z"
		/>
	<path class="st1" d="M318.9,320.1c0-104.2,0-208.4,0.1-312.5c0-5-1.2-6.2-6.2-6.2C208.6,1.5,104.5,1.5,0.3,1.4
		c1.1-2.1,3-0.9,4.5-0.9c85.5-0.1,170.9-0.1,256.4-0.1c18.6,0,37.2,0.1,55.8-0.1c2.5,0,3.1,0.6,3,3.1
		c-0.1,104.7-0.1,209.4-0.1,314.2C319.8,318.4,321.1,320,318.9,320.1z"/>
	<path class="st1" d="M189.1,245.1c-17.4,0-34.8,0.4-52.2-0.1c-12.4-0.4-23.8,3.8-35.7,6c-16.6,3-33.1,5.4-49.8,1.6
		c-5-1.2-9.9-2.8-14.5-5.1c-2.7-1.3-5.3-3-5-6.6c0.2-1.9-1.5-1.9-2.5-2.6C14,228.4,6.8,214.1,7.8,196.2c1-18.4,9.3-32.6,26.5-40.7
		c2.4-1.1,3.3-2.8,3.9-5.2c3-12.1,8.2-23.2,20-28.8c5.9-2.8,8.9-6.2,10.9-12.3c3-9.5,10.2-16.3,18.4-21.6
		c23.2-15.1,48.4-20.2,75.5-13.4c10,2.5,18.7,7.5,25.6,15.4c1.4,1.6,2.8,2.5,5,2.4c6.5,0,12.1,2.4,16.3,7.3c2.2,2.5,3.5,1.8,5.6,0.3
		c12.1-8.8,24.6-16.9,38.7-22.1c9.8-3.7,11.6-2.3,10.4,8c-0.9,8-3.2,15.6-6.1,23c-2.5,6.5-2.5,6.5,4.1,8.3
		c40.6,11.2,60.8,55.6,42.1,93c-11.7,23.3-31.7,34.3-57,35.4c-19.5,0.9-39.1,0.2-58.7,0.2C189.1,245.2,189.1,245.1,189.1,245.1z"/>
	<path class="st0" d="M40.4,240.9c9.8-7.6,18.9-15,29.3-20.8c4.6-2.6,9.5-3.6,14.8-2.8c18.9,2.9,36.9-2.1,54.8-7.2
		c12.8-3.6,25.5-7.4,36.4-15.4c6.9-5.1,13.1-10.7,17-18.5c1.8-3.6,3.4-7.6,1-11.3c-2.5-3.9-7-3.6-10.9-3.1
		c-9.9,1.2-18.8,5.3-27.4,9.9c-6.8,3.6-13.4,7.3-20.8,9.2c-2.6,0.7-5.2,1.3-7.8,1.4c-13.7,0.4-21.3-9.7-17.1-22.7
		c2.9-9.2,8.6-16.8,15.1-23.7c15.4-16.2,32.7-29.6,54.8-35.4c6.2-1.6,12.5-1.5,18.6,0.6c4.1,1.4,7.5,3.8,9.1,7.9
		c1.5,3.8,3.2,3.4,5.8,1.3c8.1-6.7,16.8-12.5,25.7-17.8c5.7-3.4,11.6-6.3,19.2-7.5c-2.5,8.8-4,17.4-8.2,25.1c-1.5,2.7-4,3.8-6.9,4.4
		c-15.9,2.8-28.9,11.3-41,21.3c-3.1,2.5-6.2,3.6-10,3.2c-3.4-0.4-5.1-1.6-2.5-5.1c1.7-2.3,3-4.8,3.7-7.6c1-4.2-0.7-6.8-4.9-7.4
		c-4-0.5-7.9,0.3-11.7,1.7c-16.8,6.2-29.1,17.5-38,32.8c-1.1,1.9-2.2,4-0.7,6.1c1.7,2.3,4.1,1,6,0.3c7.6-2.9,15-6.1,22.6-9.2
		c6.9-2.8,14-5.1,21.5-6c19.4-2.3,30.3,10.4,24.7,29.1c-4.7,15.7-15.7,26.8-28.3,36.2c-24.6,18.4-52.8,28.8-82.8,34.7
		c-16,3.1-32.2,4.8-48.4,0.9C48.7,244.4,44.7,243.5,40.4,240.9z"/>
	<path class="st2" d="M14.3,190.7c2.5-15.1,11-25.7,24.9-31.7c2.8-1.2,3.9-2.4,4.1-5.6c1-14.6,10.9-26.4,25.1-30.6
		c1.8-0.5,3.1-0.9,3.9-3.1c8.4-23.7,26.8-35.2,50.1-40.4c3-0.7,6.1-1.5,9.3-1c4.6,0.7,9.3,0.7,13.9,0c12.3,0,28.2,6.5,36.8,15
		c-5.5,2.1-10.3,3.1-15.9-0.6c-6.5-4.3-14.5-5-22.2-6.4c-3.4-1.4-6.9-0.3-10.3-0.6c-0.7,0-1,0.2-0.4,0.2c0.1,0,0.2,0.3,0.2,0.4
		c-8.8,1.5-17.6,3-25.7,7c-13.7,6.7-24.9,15.7-29.4,31.1c-0.9,3.2-3.3,4.7-6.4,5.5c-13.6,3.3-21.5,13.1-21.5,27.1
		c0,3.9-1.1,6.6-5.1,7.9c-14.7,4.9-23.2,15.2-24.5,30.5c-1.3,15.3,6.7,27.5,21.2,34.5c0.6,0.3,1.1,0.6,1.8,0.9
		c-7.2,6.9-5.1,7.1-13.1,1.4c-9.4-6.7-15.4-15.8-16.8-27.6C14.3,199.9,14.3,195.3,14.3,190.7z"/>
	<path class="st3" d="M143.6,237.4c6.2-3.4,12.5-5.2,19.8-5.2c27.2,0.3,54.4,0.2,81.5,0.1c29.2,0,52.4-22.2,53.2-50.7
		c0.8-29.1-21.2-52.8-50.7-54.3c-1.6-0.1-3.3,0.1-5,0.2c-3.6,0.3-5.8-1.2-6.1-4.9c-0.4-4.2,3.6-3.5,5.3-3.4
		c15.6,0.6,30.5,3.4,42.5,14.6c2.1,3.2,4.8,5.8,7.9,8c7,8.1,11.4,17.4,12.8,28c0.2,6.6,0.1,13.2,0,19.8
		c-2.2,24.6-27.1,48.6-51.7,49.7c-1.8-0.7-3.6-0.4-5.4-0.4c-32.5,0-65,0-97.6,0C147.9,238.9,145.5,239.4,143.6,237.4z"/>
	<path class="st4" d="M143.6,237.4c2.7,0.9,5.5,1,8.3,1c31.6,0,63.3,0,94.9,0c2.1,0,4.3-0.5,6.3,0.9c-3.3,0.2-6.6,0.5-9.9,0.5
		c-34.8,0-69.6,0-104.7,0C139.8,237.9,141.9,238.1,143.6,237.4z"/>
	<path class="st5" d="M304.8,189.6c-1.4-6.6-1.4-13.2,0-19.8C306.3,176.4,306.2,183,304.8,189.6z"/>
	<path class="st6" d="M14.3,190.7c1.5,4.6,1.5,9.3,0,13.9C13.1,199.9,13.1,195.3,14.3,190.7z"/>
	<path class="st7" d="M134,86.2c-0.8-0.2-1.6-0.3-2.4-0.5c0-0.1,0-0.2,0-0.3c5.2,0,10.3,0,16.1,0c-1.5,0.4-2.3,0.6-3.2,0.8
		C140.9,86.2,137.4,86.2,134,86.2z"/>
	<path class="st8" d="M292,141.8c-3.9-1.4-6.6-4-7.9-8C287.3,136,289.9,138.6,292,141.8z"/>
	<path class="st9" d="M145.6,78.2c-4.6,1.4-9.3,1.5-13.9,0C136.4,77.4,141,77.5,145.6,78.2z"/>
</g>
</svg>
