<?xml version="1.0" encoding="UTF-8" standalone="no"?>
<svg
   xmlns:dc="http://purl.org/dc/elements/1.1/"
   xmlns:cc="http://creativecommons.org/ns#"
   xmlns:rdf="http://www.w3.org/1999/02/22-rdf-syntax-ns#"
   xmlns:svg="http://www.w3.org/2000/svg"
   xmlns="http://www.w3.org/2000/svg"
   xmlns:sodipodi="http://sodipodi.sourceforge.net/DTD/sodipodi-0.dtd"
   xmlns:inkscape="http://www.inkscape.org/namespaces/inkscape"
   width="16"
   height="16"
   version="1.1"
   viewBox="0 0 4.2333 4.2333"
   id="svg8"
   sodipodi:docname="state-offline.svg"
   inkscape:version="1.0.2 (e86c870879, 2021-01-15)">
  <metadata
     id="metadata14">
    <rdf:RDF>
      <cc:Work
         rdf:about="">
        <dc:format>image/svg+xml</dc:format>
        <dc:type
           rdf:resource="http://purl.org/dc/dcmitype/StillImage" />
      </cc:Work>
    </rdf:RDF>
  </metadata>
  <defs
     id="defs12" />
  <sodipodi:namedview
     pagecolor="#ffffff"
     bordercolor="#666666"
     borderopacity="1"
     objecttolerance="10"
     gridtolerance="10"
     guidetolerance="10"
     inkscape:pageopacity="0"
     inkscape:pageshadow="2"
     inkscape:window-width="1272"
     inkscape:window-height="667"
     id="namedview10"
     showgrid="false"
     inkscape:zoom="16.711519"
     inkscape:cx="10.783158"
     inkscape:cy="7.578597"
     inkscape:window-x="738"
     inkscape:window-y="146"
     inkscape:window-maximized="0"
     inkscape:current-layer="svg8"
     inkscape:document-rotation="0" />
  <circle
     style="opacity:0.98;fill:#98a398;fill-opacity:1;stroke:#000000;stroke-width:0.0141746;stroke-opacity:1"
     id="path875"
     cx="2.1277261"
     cy="2.1218836"
     r="2.0164804" />
  <path
     class="st1"
     d="m 0.6795582,2.9459186 c -0.04558,-0.02123 -0.0896,-0.05076 -0.130517,-0.08753 -0.07717,-0.06888 -0.130517,-0.154859 -0.157449,-0.255855 -0.03418,-0.127409 -0.02279,-0.252229 0.03522,-0.369798 0.06578,-0.134142 0.171951,-0.225297 0.316451,-0.271392 -0.0031,-0.130517 0.04299,-0.24187 0.136732,-0.331472 0.06267,-0.05956 0.134661,-0.09633 0.214421,-0.109281 0.0015,0 0.0026,-5.25e-4 0.0036,-5.25e-4 5.24e-4,-10e-4 0.001,-0.0026 0.0015,-0.0052 0.150716,-0.55158904 0.982502,-0.72561204 1.391662,-0.352707 -0.04143,0.0057 -0.08339,0.01658 -0.12482,0.03211 -0.425215,-0.27708904 -1.069513,-0.0404 -1.17517,0.345456 -0.01191,0.04402 -0.03781,0.06733 -0.08183,0.07458 -0.0606,0.0098 -0.116015,0.03833 -0.164182,0.08442 -0.07821,0.07458 -0.112907,0.164182 -0.106692,0.2745 0.0021,0.03781 -0.01657,0.06422 -0.05283,0.07458 -0.125856,0.03677 -0.218047,0.112907 -0.273982,0.226851 -0.04713,0.09633 -0.05697,0.198365 -0.02848,0.302985 0.02279,0.0839 0.06474,0.15227 0.128963,0.209242 0.04713,0.04195 0.09737,0.07147 0.150198,0.08908 z"
     id="path850"
     style="clip-rule:evenodd;fill:#000000;fill-opacity:1;fill-rule:evenodd;stroke-width:0.00517925" />
  <path
     class="st1"
     d="m 1.9101462,2.9914966 h 0.181273 0.04765 0.261552 c 0.287966,0 0.585255,0 0.877882,0 h 5.18e-4 c 0,0 5.19e-4,0 0.001,0 0.08649,0 0.171951,-0.01554 0.252747,-0.04558 0.123266,-0.04609 0.228405,-0.119122 0.311791,-0.21701 0.108764,-0.127927 0.1688428,-0.279161 0.1781655,-0.448523 0.00104,-0.0145 0.00156,-0.02952 0.00156,-0.04454 0,-0.09892 -0.020199,-0.197329 -0.059563,-0.288484 v 0 c -0.06267,-0.145019 -0.160556,-0.259998 -0.291591,-0.342348 -0.08287,-0.05283 -0.176094,-0.08805 -0.273464,-0.104103 -0.04506,-0.0073 -0.09633,-0.0145 -0.150198,-0.01139 l -0.0016,-0.01243 -0.09323,0.02072 c 5.19e-4,0.0052 0.0016,0.01865 0.0016,0.02382 5.18e-4,0.01139 0.001,0.0347 0.02072,0.05179 0.0202,0.01761 0.04454,0.0145 0.05904,0.01295 0.05024,-0.0057 0.100477,0.0015 0.148126,0.0088 0.08442,0.01398 0.165736,0.04506 0.237728,0.09064 0.114461,0.07199 0.199918,0.172987 0.254818,0.299878 0.03418,0.07924 0.05179,0.1647 0.05179,0.250676 0,0.01295 -5.19e-4,0.0259 -10e-4,0.03884 -0.0083,0.148644 -0.06112,0.280715 -0.155895,0.392587 -0.07251,0.08546 -0.164182,0.149162 -0.272428,0.18956 -0.07044,0.0259 -0.144501,0.03936 -0.2196,0.03936 0,0 -5.19e-4,0 -10e-4,0 h -5.19e-4 c -0.292627,0 -0.590433,0 -0.877881,0 h -0.254301 z"
     id="path852"
     style="clip-rule:evenodd;fill:#000000;fill-opacity:1;fill-rule:evenodd;stroke-width:0.00517925" />
  <path
     class="st2"
     d="m 2.7528092,1.6609486 z m -0.029,0.02486 z m -0.790353,0.310754 z m 0.682107,-0.755651 z m 0.185417,0.131552 c 0.0041,0.0093 0.0073,0.01709 0.01088,0.02124 0.0093,0.01139 0.03574,-0.0047 0.150198,-0.09996 l 0.0016,-10e-4 c 0.02434,-0.01554 0.04817,-0.03159 0.07199,-0.04765 0.113943,-0.07614 0.239799,-0.160039 0.363065,-0.185417 l 0.0259,-0.0052 -0.0067,0.0259 c -0.08442,0.323185 -0.09789,0.325774 -0.206134,0.348045 -0.07614,0.01554 -0.20458,0.04195 -0.459399,0.233584 -0.01139,0.0088 -0.02072,0.01709 -0.029,0.02486 -0.03159,0.02797 -0.04972,0.04454 -0.110317,0.04299 -0.01502,0 -0.02642,-5.24e-4 -0.03626,-0.0031 -0.01347,-0.0036 -0.02227,-0.01139 -0.02641,-0.02538 l -0.0026,-0.0078 0.0047,-0.0067 c 0.0549,-0.07614 0.07199,-0.130517 0.06163,-0.165218 -0.0062,-0.02175 -0.02538,-0.03522 -0.05231,-0.04143 -0.03056,-0.0067 -0.07199,-0.0041 -0.119122,0.0078 -0.163664,0.04143 -0.393105,0.192151 -0.52414,0.442308 -0.0098,0.04402 -0.0041,0.06371 0.01347,0.06785 0.03833,0.0088 0.121195,-0.02745 0.22219,-0.07147 0.205098,-0.0896 0.479598,-0.209241 0.648959,-0.05904 l 0.001,10e-4 0.0057,0.0062 c 0.07199,0.07872 0.0751,0.188524 0.04143,0.296253 -0.03263,0.105138 -0.100477,0.208723 -0.171951,0.279161 l -0.01347,0.01295 c -0.185417,0.213385 -0.552625,0.408125 -0.938479,0.521032 -0.224779,0.06578 -0.456291,0.103585 -0.662943,0.102031 -0.128963,-0.0098 -0.251193,-0.03004 -0.356332,-0.08131 l 0.001,-10e-4 c 0.401391,-0.314897 0.442307,-0.309718 0.571788,-0.293144 0.111872,0.01398 0.293663,0.03729 0.877364,-0.159003 0.237209,-0.08598 0.401391,-0.241871 0.458363,-0.367208 0.0202,-0.04402 0.02641,-0.08339 0.01709,-0.113426 -0.0083,-0.02797 -0.03159,-0.04765 -0.07096,-0.05542 -0.09115,-0.01813 -0.261033,0.02693 -0.526729,0.180238 l -0.0021,10e-4 -0.03004,0.01243 c -0.106692,0.04402 -0.205098,0.08494 -0.318523,0.04402 l -5.19e-4,-5.25e-4 c -0.07769,-0.03107 -0.117051,-0.08235 -0.125856,-0.146054 -0.0088,-0.06111 0.0114,-0.133625 0.05231,-0.20976 0.03988,-0.07458 0.09996,-0.153305 0.172469,-0.228922 0.235137,-0.247568 0.602345,-0.468722 0.83075,-0.426252 0.138804,0.02175 0.167808,0.08857 0.186453,0.130517 z"
     id="path854"
     style="clip-rule:evenodd;fill:#000000;fill-opacity:1;fill-rule:evenodd;stroke-width:0.00517925" />
  <path
     class="st3"
     d="m 0.8245762,2.8516566 -0.190596,0.159003"
     id="path856"
     style="fill:#000000;fill-opacity:1;stroke-width:0.00517925" />
</svg>
