<?xml version="1.0" encoding="UTF-8" standalone="no"?>
<svg
   xmlns:dc="http://purl.org/dc/elements/1.1/"
   xmlns:cc="http://creativecommons.org/ns#"
   xmlns:rdf="http://www.w3.org/1999/02/22-rdf-syntax-ns#"
   xmlns:svg="http://www.w3.org/2000/svg"
   xmlns="http://www.w3.org/2000/svg"
   xmlns:sodipodi="http://sodipodi.sourceforge.net/DTD/sodipodi-0.dtd"
   xmlns:inkscape="http://www.inkscape.org/namespaces/inkscape"
   xml:space="preserve"
   height="126"
   viewBox="0 0 266.00001 126.0018"
   width="266"
   version="1.1"
   y="0px"
   x="0px"
   enable-background="new 0 0 196.6 72"
   id="svg4"
   sodipodi:docname="wizard_logo.svg"
   inkscape:version="0.92.2 2405546, 2018-03-11"><metadata
     id="metadata10"><rdf:RDF><cc:Work
         rdf:about=""><dc:format>image/svg+xml</dc:format><dc:type
           rdf:resource="http://purl.org/dc/dcmitype/StillImage" /></cc:Work></rdf:RDF></metadata><defs
     id="defs8" /><sodipodi:namedview
     pagecolor="#ffffff"
     bordercolor="#666666"
     borderopacity="1"
     objecttolerance="10"
     gridtolerance="10"
     guidetolerance="10"
     inkscape:pageopacity="0"
     inkscape:pageshadow="2"
     inkscape:window-width="1920"
     inkscape:window-height="1028"
     id="namedview6"
     showgrid="false"
     inkscape:zoom="3.8943257"
     inkscape:cx="133"
     inkscape:cy="63"
     inkscape:window-x="0"
     inkscape:window-y="27"
     inkscape:window-maximized="1"
     inkscape:current-layer="svg4" /><g
     transform="matrix(0.16164186,0,0,0.16164186,21.176632,-41.628588)"
     id="g120"><path
       inkscape:connector-curvature="0"
       id="path134"
       d="m 195.70939,1032.5094 c -0.24782,-0.2478 -4.96382,-1.1242 -10.47999,-1.9474 -36.67748,-5.4736 -71.44762,-23.1433 -98.216703,-49.9124 C 50.24177,943.87869 31.247689,892.41857 35.334515,840.63939 c 2.91426,-36.92302 16.83671,-71.62468 39.778434,-99.14759 22.675694,-27.20376 51.362301,-46.74056 84.242131,-57.37247 l 12.95509,-4.18912 -0.31918,-13.3251 c -0.75145,-31.37212 7.96829,-60.90998 25.34063,-85.84071 6.71082,-9.63057 26.17613,-29.49474 35.00248,-35.71971 15.79778,-11.1417 39.32996,-21.11096 57.05682,-24.17176 4.72501,-0.81584 9.11842,-2.03 9.76314,-2.69814 0.64471,-0.66814 2.76758,-6.83079 4.71748,-13.69479 6.2709,-22.07471 18.70691,-51.77863 29.66786,-70.86285 6.59592,-11.48425 24.02405,-37.77268 27.84714,-42.00439 1.707,-1.88945 4.96715,-5.9579 7.24477,-9.04101 11.88063,-16.0822 42.24915,-44.09695 66.67084,-61.50335 32.38352,-23.08116 79.4568,-44.05404 117.17785,-52.20706 5.28,-1.14122 12.192,-2.68707 15.36,-3.43524 15.7686,-3.72396 67.75515,-7.27928 79.2,-5.41644 3.432,0.55863 11.856,1.48629 18.72,2.06148 6.864,0.57518 15.936,1.68861 20.16,2.47428 4.224,0.78568 10.272,1.85939 13.44,2.38605 9.89727,1.64532 43.35952,11.47753 52.60777,15.45772 4.85772,2.09063 12.28823,5.14289 16.51223,6.78279 16.99306,6.59728 50.29359,26.46419 71.04,42.38204 8.70508,6.67904 26.70841,23.2315 38.58931,35.47943 l 12.66931,13.06069 10.37069,-1.84876 c 20.72459,-3.69454 23.97303,-4.04353 33.41069,-3.58942 16.7883,0.80782 31.17869,3.83965 47.1167,9.92675 15.44285,5.89798 35.0375,18.91771 47.0769,31.28029 22.4798,23.08348 37.7504,58.01926 37.8211,86.52647 0.01,3.26179 0.3321,6.37864 0.72,6.92634 0.4521,0.63835 8.9757,1.01144 23.7453,1.03939 22.6642,0.0429 26.9363,0.41518 48,4.18306 52.0531,9.31121 99.0669,34.12585 137.28,72.45866 33.1531,33.25692 55.191,71.29506 67.3238,116.20308 3.3705,12.47532 3.8264,14.65075 6.8403,32.64 2.2533,13.4493 2.2236,59.45253 -0.047,72 -0.8598,4.752 -1.9735,11.016 -2.4748,13.92 -3.292,19.07026 -13.3154,48.50725 -23.2858,68.38637 -4.9222,9.81404 -17.4035,29.39882 -24.9932,39.21743 -3.3461,4.32871 -7.4146,9.64469 -9.0413,11.81329 -10.8969,14.52698 -42.8896,41.53411 -64.0769,54.09149 -30.8365,18.27642 -67.3568,31.23752 -98.0855,34.81082 -5.28,0.614 -11.4113,1.5134 -13.6251,1.9985 -4.0515,0.8879 -918.25992,1.3171 -919.14549,0.4315 z M 539.04,871.2192 c 26.13604,-3.07812 57.944,-10.13536 82.93799,-18.40147 15.76587,-5.21416 28.01076,-10.24431 25.95818,-10.66352 -0.82711,-0.16893 -10.76311,2.06504 -22.08,4.96437 -56.93722,14.58703 -102.92908,20.46351 -137.94699,17.6258 -8.31005,-0.67341 -18.88013,-1.22438 -23.48906,-1.22438 -7.8865,0 -8.53649,0.15718 -11.04,2.66963 -2.04442,2.05173 -2.36601,2.85263 -1.38944,3.46033 0.69888,0.43489 7.17888,1.09758 14.4,1.47264 7.22112,0.37505 15.93732,1.05216 19.36932,1.50469 8.65662,1.14143 38.27964,0.35855 53.28,-1.40809 z m 94.37991,-164.0925 c 3.14734,-1.64907 1.76995,-2.32554 -6.25355,-3.07123 -9.31792,-0.86602 -13.87854,1.81175 -7.62812,4.47885 2.55318,1.08947 10.69066,0.26431 13.88167,-1.40762 z M 782.4,669.19445 c 0,-1.57227 -11.09602,-4.41712 -11.93483,-3.05991 -0.29287,0.47389 1.94866,1.51259 4.98117,2.30825 6.92162,1.81606 6.95366,1.81952 6.95366,0.75166 z m -9.6,-122.9298 c 0,-1.65828 -5.24678,-3.71124 -11.20875,-4.38577 -6.04475,-0.68388 -19.07529,0.95905 -20.0445,2.52728 -0.3072,0.49706 3.10626,0.91877 7.91659,0.97803 4.65116,0.0573 11.04866,0.4258 14.21666,0.81886 8.63394,1.07125 9.12,1.07454 9.12,0.0616 z"
       style="fill:#9d9d9d;stroke-width:0.95999998" /><path
       inkscape:connector-curvature="0"
       id="path132"
       d="m 189.12,1029.923 c -11.50332,-1.9578 -27.80438,-6.042 -36.19365,-9.0683 C 121.28147,1009.4392 91.894332,987.73104 71.844939,960.96 65.525075,952.52138 56.230022,937.51743 55.19259,934.08 54.794208,932.76 53.073395,928.872 51.368559,925.44 46.117254,914.8686 40.1259,894.51459 38.228452,880.8 36.655713,869.43238 36.663126,838.90071 38.241269,828.01382 45.005293,781.35191 71.619767,738.13664 110.88,710.06663 c 12.62225,-9.02457 33.87588,-19.61491 49.39171,-24.61108 6.82537,-2.1978 12.88142,-4.56431 13.45788,-5.25891 0.73565,-0.88641 0.76032,-2.51103 0.0828,-5.44976 -1.23248,-5.34527 -1.28069,-18.18778 -0.0935,-24.90677 0.50535,-2.86006 1.59568,-9.20654 2.42297,-14.10327 2.12171,-12.55848 5.59562,-22.96891 11.92519,-35.73684 7.65911,-15.44986 15.01773,-25.59468 27.87947,-38.43554 21.1674,-21.13303 43.81506,-33.1669 73.97356,-39.30594 5.544,-1.12854 10.40618,-2.37416 10.80484,-2.76805 0.39866,-0.39388 2.42334,-6.68246 4.49931,-13.97461 9.46707,-33.25474 25.39379,-66.85456 45.99555,-97.03458 12.51953,-18.34015 23.11513,-31.08533 39.08365,-47.01271 28.46875,-28.39541 54.38275,-47.20866 88.49923,-64.2494 32.26723,-16.11705 69.53189,-27.96609 100.07742,-31.8216 5.544,-0.69977 12.888,-1.80089 16.32,-2.44692 7.72673,-1.45445 59.89219,-1.56701 69.6,-0.15016 33.03609,4.82158 65.49887,12.43622 82.56,19.36571 23.12905,9.39403 30.03798,12.56695 44.43603,20.40728 14.29096,7.78202 38.67901,23.61445 46.89504,30.44369 18.06003,15.0117 26.86907,23.03429 38.33577,34.91327 l 13.50685,13.99248 6.65315,-1.31267 c 3.65924,-0.72197 8.16516,-1.78036 10.01316,-2.35197 5.48863,-1.6977 31.17282,-2.37039 40.35297,-1.05687 23.09208,3.30408 46.35087,12.60163 63.11535,25.22994 8.6105,6.48597 22.1261,19.84043 28.4683,28.12865 5.6048,7.32459 13.6028,21.7044 17.4314,31.34008 4.3661,10.98851 8.1102,27.50305 8.7358,38.53323 0.3316,5.84507 1.0465,10.63885 1.6417,11.00903 0.5799,0.36065 11.8544,0.72051 25.0544,0.7997 18.9683,0.1138 26.8178,0.56873 37.44,2.1699 75.242,11.34178 141.5613,54.56948 181.8637,118.54102 12.6062,20.00966 25.5146,49.2949 30.3597,68.87684 1.2701,5.1332 2.7693,10.54327 3.3317,12.02239 0.9947,2.6164 2.8762,14.98309 4.9518,32.54781 1.5406,13.03695 2.0174,34.73396 0.9177,41.76 -0.5372,3.432 -1.6689,12.26323 -2.5149,19.62496 -4.6429,40.40047 -23.0742,85.22329 -49.4433,120.24019 -5.4461,7.23233 -22.2135,26.31273 -25.9019,29.47519 -1.2955,1.11082 -5.3995,4.84638 -9.12,8.30132 -31.7081,29.44503 -84.6085,55.06644 -126.7645,61.39604 -3.696,0.555 -8.664,1.517 -11.04,2.1378 -5.4655,1.4282 -928.61963,2.0071 -936.95992,0.5875 z M 531.84,873.16735 c 42.59608,-4.14108 90.50051,-16.49555 128.64,-33.17605 11.53692,-5.04573 22.63118,-10.84758 21.47784,-11.23202 -0.48628,-0.16209 -10.26686,2.71386 -21.73463,6.391 -42.67265,13.68303 -73.94247,20.9857 -111.58321,26.05888 -20.78058,2.80078 -55.39628,3.49094 -72.74312,1.45034 -15.56241,-1.83069 -19.61142,-1.21147 -25.6007,3.91512 -6.47193,5.53974 -5.58815,6.31923 6.42382,5.6659 6.51402,-0.35431 14.03747,-0.0743 20.4,0.75931 13.42956,1.75948 37.58409,1.83341 54.72,0.16752 z M 635.96913,707.81356 c 5.12895,-1.90434 6.83391,-4.10791 3.23087,-4.17571 -1.232,-0.0231 -5.34473,-0.40218 -9.13939,-0.84218 -6.98557,-0.81002 -14.09792,-0.10236 -15.7693,1.56902 -1.41106,1.41106 -0.002,3.90264 2.83126,5.00772 3.47513,1.35524 13.15426,0.55466 18.84656,-1.55885 z M 789.12,671.5983 c 0,-3.86695 -14.47999,-8.72592 -23.77923,-7.97947 -6.68791,0.53684 -9.79518,2.14436 -5.87962,3.04177 1.26436,0.28978 6.18685,1.38625 10.93885,2.4366 4.752,1.05035 9.936,2.31204 11.52,2.80375 4.36751,1.35579 7.2,1.23672 7.2,-0.30265 z M 822,570.55824 c 4.2501,-2.1372 3.0765,-3.19824 -3.5375,-3.19824 -6.88938,0 -11.4633,1.31638 -10.86133,3.1259 0.88026,2.64614 9.19742,2.68792 14.39883,0.0723 z m -80.4,-23.36056 c 10.17496,-1.00234 12.87417,-0.87134 31.92,1.54922 5.56477,0.70723 6.26542,-0.0753 2.88,-3.21632 -6.43156,-5.96738 -26.53017,-6.7697 -41.52,-1.65746 -4.224,1.44059 -8.544,3.25679 -9.6,4.03602 -1.77933,1.31298 -1.63866,1.37692 1.92,0.87279 2.112,-0.2992 8.592,-1.01211 14.4,-1.58425 z"
       style="fill:#88cb74;stroke-width:0.95999998" /><path
       inkscape:connector-curvature="0"
       id="path130"
       d="m 189.12,1029.923 c -11.50332,-1.9578 -27.80438,-6.042 -36.19365,-9.0683 C 121.28147,1009.4392 91.894332,987.73104 71.844939,960.96 65.525075,952.52138 56.230022,937.51743 55.19259,934.08 54.794208,932.76 53.073395,928.872 51.368559,925.44 46.117254,914.8686 40.1259,894.51459 38.228452,880.8 36.655713,869.43238 36.663126,838.90071 38.241269,828.01382 45.005293,781.35191 71.619767,738.13664 110.88,710.06663 c 12.62225,-9.02457 33.87588,-19.61491 49.39171,-24.61108 6.82537,-2.1978 12.88142,-4.56431 13.45788,-5.25891 0.73565,-0.88641 0.76032,-2.51103 0.0828,-5.44976 -1.23248,-5.34527 -1.28069,-18.18778 -0.0935,-24.90677 0.50535,-2.86006 1.59568,-9.20654 2.42297,-14.10327 2.12171,-12.55848 5.59562,-22.96891 11.92519,-35.73684 7.65911,-15.44986 15.01773,-25.59468 27.87947,-38.43554 21.1674,-21.13303 43.81506,-33.1669 73.97356,-39.30594 5.544,-1.12854 10.40618,-2.37416 10.80484,-2.76805 0.39866,-0.39388 2.42334,-6.68246 4.49931,-13.97461 9.46707,-33.25474 25.39379,-66.85456 45.99555,-97.03458 12.51953,-18.34015 23.11513,-31.08533 39.08365,-47.01271 28.46875,-28.39541 54.38275,-47.20866 88.49923,-64.2494 32.26723,-16.11705 69.53189,-27.96609 100.07742,-31.8216 5.544,-0.69977 12.888,-1.80089 16.32,-2.44692 7.72673,-1.45445 59.89219,-1.56701 69.6,-0.15016 33.03609,4.82158 65.49887,12.43622 82.56,19.36571 23.12905,9.39403 30.03798,12.56695 44.43603,20.40728 14.29096,7.78202 38.67901,23.61445 46.89504,30.44369 18.06003,15.0117 26.86907,23.03429 38.33577,34.91327 l 13.50685,13.99248 6.65315,-1.31267 c 3.65924,-0.72197 8.16516,-1.78036 10.01316,-2.35197 5.48863,-1.6977 31.17282,-2.37039 40.35297,-1.05687 23.09208,3.30408 46.35087,12.60163 63.11535,25.22994 8.6105,6.48597 22.1261,19.84043 28.4683,28.12865 5.6048,7.32459 13.6028,21.7044 17.4314,31.34008 4.3661,10.98851 8.1102,27.50305 8.7358,38.53323 0.3316,5.84507 1.0465,10.63885 1.6417,11.00903 0.5799,0.36065 11.8544,0.72051 25.0544,0.7997 18.9683,0.1138 26.8178,0.56873 37.44,2.1699 75.242,11.34178 141.5613,54.56948 181.8637,118.54102 12.6062,20.00966 25.5146,49.2949 30.3597,68.87684 1.2701,5.1332 2.7693,10.54327 3.3317,12.02239 0.9947,2.6164 2.8762,14.98309 4.9518,32.54781 1.5406,13.03695 2.0174,34.73396 0.9177,41.76 -0.5372,3.432 -1.6689,12.26323 -2.5149,19.62496 -4.6429,40.40047 -23.0742,85.22329 -49.4433,120.24019 -5.4461,7.23233 -22.2135,26.31273 -25.9019,29.47519 -1.2955,1.11082 -5.3995,4.84638 -9.12,8.30132 -31.7081,29.44503 -84.6085,55.06644 -126.7645,61.39604 -3.696,0.555 -8.664,1.517 -11.04,2.1378 -5.4655,1.4282 -928.61963,2.0071 -936.95992,0.5875 z M 417.05733,897.11124 c 8.68136,-2.51575 17.54036,-6.57568 24.06267,-11.0275 12.35519,-8.43306 17.17632,-9.3254 38.77104,-7.17615 17.52484,1.7442 34.74525,1.57749 53.38896,-0.51683 67.05423,-7.5325 147.22291,-36.37318 193.27426,-69.5304 8.98794,-6.47136 19.0539,-15.57219 18.18483,-16.44126 -0.32842,-0.32844 -6.47682,2.72168 -13.66308,6.77804 -37.13869,20.96328 -76.93913,36.39205 -123.87601,48.02091 -45.43726,11.25731 -88.28436,16.30938 -117.71019,13.87911 -29.20891,-2.41235 -31.74914,-2.39031 -37.1501,0.32244 -2.66514,1.33862 -8.00786,4.7716 -11.87271,7.62884 -3.86485,2.85724 -13.291,9.53555 -20.947,14.8407 -14.66448,10.1616 -17.86857,12.94189 -16.83738,14.61037 1.00617,1.62804 5.44561,1.19929 14.37471,-1.38827 z M 629.45284,712.73382 c 9.28766,-1.91842 11.97367,-2.99931 36.86601,-14.83545 34.75544,-16.52598 52.96319,-23.34337 70.3669,-26.34697 18.85514,-3.25408 35.50725,-0.78075 52.75334,7.83545 5.38387,2.6898 6.81777,3.06228 8.00277,2.07883 1.90362,-1.57988 1.0199,-5.9644 -2.00025,-9.92401 -2.80631,-3.67927 -11.69038,-8.48252 -18.71282,-10.11727 -7.853,-1.82809 -20.53417,-0.64164 -35.12879,3.28666 -14.66235,3.94652 -26.55276,8.26571 -60.57559,22.00411 -13.78057,5.56458 -27.66693,10.79408 -30.85856,11.62112 -6.99474,1.81252 -14.54336,1.90104 -32.61789,0.38252 -12.81576,-1.07672 -13.77139,-1.03899 -15.6,0.61589 -2.71302,2.45524 -2.64531,8.42083 0.12485,11.00163 4.13419,3.85157 15.51556,4.84816 27.38003,2.39749 z M 596.92571,645.84 c 40.83265,-48.79548 94.36951,-85.52828 137.46584,-94.31828 11.85766,-2.4185 30.6235,-1.63268 39.84845,1.66866 13.46744,4.81961 15.44746,6.1952 19.20212,13.34033 1.87633,3.57068 4.53771,7.37799 5.91416,8.4607 4.60403,3.62154 17.30018,2.21673 27.68372,-3.06315 5.21087,-2.64966 8.89313,-6.07659 7.75164,-7.21414 C 834.39752,564.32135 827.74017,564 819.99753,564 c -11.3171,0 -15.11287,-0.35657 -19.35753,-1.81842 -7.14558,-2.46093 -8.16073,-3.2788 -12.79116,-10.30531 -7.1297,-10.8191 -17.474,-14.92648 -35.20884,-13.98026 -12.22097,0.65202 -23.06745,3.49112 -38.8954,10.18099 -41.9854,17.7456 -91.72661,56.38553 -118.4804,92.03789 -6.6572,8.87144 -12.19685,19.40511 -10.20514,19.40511 0.23049,0 5.57048,-6.156 11.86665,-13.68 z m 286.6033,-105.46037 c 8.00304,-3.22321 15.84505,-6.52914 17.42668,-7.34653 4.10304,-2.12046 14.67661,-12.43202 17.90473,-17.46105 6.77966,-10.56193 2.44955,-9.11485 -22.44876,7.50211 -21.8862,14.60672 -32.55423,23.05551 -29.20265,23.12772 0.97296,0.0209 8.31696,-2.59905 16.32,-5.82225 z"
       style="fill:#48b321;stroke-width:0.95999998" /><path
       inkscape:connector-curvature="0"
       id="path128"
       d="m 189.12,1029.923 c -11.50332,-1.9578 -27.80438,-6.042 -36.19365,-9.0683 C 121.28147,1009.4392 91.894332,987.73104 71.844939,960.96 65.525075,952.52138 56.230022,937.51743 55.19259,934.08 54.794208,932.76 53.073395,928.872 51.368559,925.44 46.117254,914.8686 40.1259,894.51459 38.228452,880.8 36.655713,869.43238 36.663126,838.90071 38.241269,828.01382 45.005293,781.35191 71.619767,738.13664 110.88,710.06663 c 12.62225,-9.02457 33.87588,-19.61491 49.39171,-24.61108 6.82537,-2.1978 12.88142,-4.56431 13.45788,-5.25891 0.73565,-0.88641 0.76032,-2.51103 0.0828,-5.44976 -1.23248,-5.34527 -1.28069,-18.18778 -0.0935,-24.90677 0.50535,-2.86006 1.59568,-9.20654 2.42297,-14.10327 2.12171,-12.55848 5.59562,-22.96891 11.92519,-35.73684 7.65911,-15.44986 15.01773,-25.59468 27.87947,-38.43554 21.1674,-21.13303 43.81506,-33.1669 73.97356,-39.30594 5.544,-1.12854 10.40618,-2.37416 10.80484,-2.76805 0.39866,-0.39388 2.42334,-6.68246 4.49931,-13.97461 9.46707,-33.25474 25.39379,-66.85456 45.99555,-97.03458 12.51953,-18.34015 23.11513,-31.08533 39.08365,-47.01271 28.46875,-28.39541 54.38275,-47.20866 88.49923,-64.2494 32.26723,-16.11705 69.53189,-27.96609 100.07742,-31.8216 5.544,-0.69977 12.888,-1.80089 16.32,-2.44692 7.72673,-1.45445 59.89219,-1.56701 69.6,-0.15016 33.03609,4.82158 65.49887,12.43622 82.56,19.36571 23.12905,9.39403 30.03798,12.56695 44.43603,20.40728 14.29096,7.78202 38.67901,23.61445 46.89504,30.44369 18.06003,15.0117 26.86907,23.03429 38.33577,34.91327 l 13.50685,13.99248 6.65315,-1.31267 c 3.65924,-0.72197 8.16516,-1.78036 10.01316,-2.35197 5.48863,-1.6977 31.17282,-2.37039 40.35297,-1.05687 23.09208,3.30408 46.35087,12.60163 63.11535,25.22994 8.6105,6.48597 22.1261,19.84043 28.4683,28.12865 5.6048,7.32459 13.6028,21.7044 17.4314,31.34008 4.3661,10.98851 8.1102,27.50305 8.7358,38.53323 0.3316,5.84507 1.0465,10.63885 1.6417,11.00903 0.5799,0.36065 11.8544,0.72051 25.0544,0.7997 18.9683,0.1138 26.8178,0.56873 37.44,2.1699 75.242,11.34178 141.5613,54.56948 181.8637,118.54102 12.6062,20.00966 25.5146,49.2949 30.3597,68.87684 1.2701,5.1332 2.7693,10.54327 3.3317,12.02239 0.9947,2.6164 2.8762,14.98309 4.9518,32.54781 1.5406,13.03695 2.0174,34.73396 0.9177,41.76 -0.5372,3.432 -1.6689,12.26323 -2.5149,19.62496 -4.6429,40.40047 -23.0742,85.22329 -49.4433,120.24019 -5.4461,7.23233 -22.2135,26.31273 -25.9019,29.47519 -1.2955,1.11082 -5.3995,4.84638 -9.12,8.30132 -31.7081,29.44503 -84.6085,55.06644 -126.7645,61.39604 -3.696,0.555 -8.664,1.517 -11.04,2.1378 -5.4655,1.4282 -928.61963,2.0071 -936.95992,0.5875 z M 477.14867,917.25007 c 20.04431,-2.46119 37.11394,-5.87694 67.65133,-13.53749 26.5954,-6.67166 35.21332,-9.44725 49.20256,-15.84668 3.30141,-1.51025 6.25855,-2.7459 6.57142,-2.7459 0.82826,0 15.17868,-7.09379 15.74602,-7.78367 0.264,-0.32102 2.59876,-1.51426 5.18836,-2.65165 2.58959,-1.13738 4.53359,-2.21184 4.32,-2.38769 -0.51573,-0.42459 -17.20606,1.59648 -34.46836,4.17384 -7.656,1.14308 -15.864,2.31728 -18.24,2.60931 -2.376,0.29204 -4.79008,0.90135 -5.36463,1.35402 -0.57455,0.45268 -4.46255,1.28984 -8.64,1.86036 -4.17745,0.57052 -9.10737,1.47718 -10.95537,2.0148 -7.58265,2.20594 -38.42923,4.49369 -61.92,4.59232 -23.74553,0.0997 -34.64621,2.49152 -49.13443,10.78105 -6.54386,3.74411 -9.90557,7.25868 -9.90557,10.35598 0,2.01807 4.99216,5.35556 10.35755,6.92451 7.16019,2.09378 23.88829,2.215 39.59112,0.28689 z m -60.37435,-16.71149 c 18.32231,-3.79553 32.03815,-8.02862 41.14568,-12.69872 3.71866,-1.90683 5.32224,-2.15008 11.52,-1.74752 25.59228,1.66228 70.3483,-2.31593 99.36,-8.83177 12.55769,-2.82039 43.71527,-11.71674 56.64,-16.1723 45.86739,-15.81193 88.02858,-37.5088 113.87596,-58.60252 8.49085,-6.92928 21.43721,-19.68573 25.38676,-25.01437 5.96911,-8.05339 3.98603,-7.67717 -8.20752,1.55711 -18.44019,13.96491 -36.74275,24.85637 -59.81788,35.59637 -67.94161,31.62244 -162.80968,50.8861 -217.19381,44.10281 -14.48755,-1.80703 -20.28212,-1.8146 -25.33137,-0.0331 -3.80266,1.34166 -42.88901,27.64999 -51.75206,34.8334 -4.50567,3.6518 -5.46835,5.20281 -4.61292,7.43205 0.77713,2.02519 7.94453,1.86611 18.98716,-0.42142 z M 600.90715,737.1695 c 9.02299,-3.94804 13.49285,-9.13701 13.49285,-15.66354 0,-2.75159 0.40645,-3.4677 2.16,-3.80558 1.188,-0.22892 4.752,-0.91217 7.92,-1.51834 9.97887,-1.90936 17.71625,-4.73574 36,-13.1504 43.70558,-20.11446 60.94202,-26.63471 78.24,-29.5968 19.52244,-3.343 37.21729,0.26478 52.46219,10.69646 7.44423,5.09389 9.58089,5.12864 10.80825,0.17574 0.73529,-2.96718 0.45855,-4.35447 -1.7824,-8.93479 -3.17379,-6.487 -8.52585,-10.73005 -17.72036,-14.04849 -17.71179,-6.39246 -45.97948,-0.0634 -99.47228,22.27168 -25.84776,10.79232 -35.48316,14.12385 -43.08031,14.89544 -9.99741,1.01536 -31.44925,-3.05317 -37.89748,-7.18759 -0.85984,-0.55131 -1.61764,-4.05964 -2.16647,-10.03011 -0.88313,-9.60703 -2.37292,-15.27533 -3.52626,-13.41661 -0.36569,0.58935 -1.52888,1.22271 -2.58488,1.40748 -2.5759,0.45072 -2.18526,-1.69794 1.8588,-10.22405 11.40072,-24.03617 49.22804,-60.73289 84.94856,-82.40957 27.93334,-16.9511 53.76988,-25.40501 74.47264,-24.36799 17.31166,0.86716 29.10262,6.32224 34.70788,16.05756 4.59289,7.97702 7.76822,11.38748 11.19976,12.02907 4.78595,0.89481 17.66756,-2.19662 26.09236,-6.26185 7.30916,-3.52692 17.00726,-11.63996 15.5983,-13.04893 -0.81613,-0.81612 -21.12406,1.56335 -22.2703,2.60942 -1.18987,1.08588 -7.248,1.0817 -7.248,-0.005 0,-0.46052 -1.62,-1.1062 -3.6,-1.43486 -7.01009,-1.16356 -12.97756,-4.83855 -19.13543,-11.78429 -3.35011,-3.77876 -8.02724,-7.82662 -10.76505,-9.31673 -5.65192,-3.07615 -15.59056,-5.3865 -23.27347,-5.41015 -26.27646,-0.0809 -71.90847,20.8682 -109.83861,50.42556 C 597.60902,624.22672 566.4,665.91045 566.4,693.11618 c 0,2.11733 -1.21521,5.93036 -2.9814,9.35493 -4.28243,8.30347 -4.82912,16.41431 -1.58413,23.50232 2.59234,5.66238 5.90859,8.57615 12.4221,10.91442 10.07714,3.61757 18.81552,3.70992 26.65058,0.28165 z M 870.79001,549.11296 c 9.7295,-4.25468 21.36199,-9.33182 25.84999,-11.28253 6.62406,-2.87916 9.37114,-4.77073 14.5944,-10.04934 10.67739,-10.79055 14.96437,-18.27954 11.91338,-20.81164 -2.073,-1.72044 -4.56372,-0.7025 -14.98778,6.12543 -5.016,3.28556 -14.88957,9.72658 -21.94127,14.31339 -19.35421,12.58899 -37.57873,26.95727 -37.57873,29.62717 0,1.49376 3.38972,0.28135 22.15001,-7.92248 z"
       style="fill:#585858;stroke-width:0.95999998" /><path
       inkscape:connector-curvature="0"
       id="path126"
       d="m 189.12,1028.485 c -29.26557,-5.3801 -44.59245,-10.7962 -66.35183,-23.4471 C 106.14738,995.37466 84.997226,976.64189 74.086073,961.92 67.598431,953.16655 58.046975,937.97888 57.08911,934.8933 56.704384,933.65399 55.132978,930.13471 53.597096,927.07267 41.759089,903.47171 35.721178,869.31492 38.223192,840.10167 44.537653,766.37474 94.339181,706.05886 166.32,684.96042 c 4.62,-1.35417 8.43295,-2.77225 8.47322,-3.15127 0.0403,-0.37904 0.1714,-9.11315 0.2914,-19.40915 0.29818,-25.58579 3.8461,-41.20703 13.98414,-61.57128 7.93506,-15.9391 14.20542,-24.59694 27.40159,-37.83484 21.51075,-21.57877 45.51803,-34.39942 73.6519,-39.33244 5.12724,-0.89901 9.98134,-2.12662 10.78691,-2.728 0.80556,-0.60139 3.33955,-7.35744 5.63108,-15.01344 5.78034,-19.31214 11.20136,-33.55973 19.17652,-50.4 8.88316,-18.75757 15.07177,-29.44761 27.2321,-47.04 33.21392,-48.05068 75.1305,-84.48079 127.05114,-110.4214 23.55193,-11.76703 52.12561,-21.95855 75.35725,-26.87808 6.1699,-1.30653 11.60002,-2.61162 12.06695,-2.9002 1.0389,-0.64207 20.16832,-2.9876 36.4158,-4.46508 35.87883,-3.26267 81.98027,1.14103 115.86141,11.0673 6.23623,1.82705 12.61147,3.61144 14.16723,3.96532 3.2622,0.74203 15.35971,5.40256 31.35157,12.07811 12.6242,5.26977 41.15801,20.51821 48.37979,25.85411 2.64,1.9506 9.09344,6.50293 14.34097,10.11632 5.24753,3.61338 11.78996,8.54389 14.53874,10.95669 2.74878,2.4128 8.11917,6.97891 11.93422,10.14691 3.81504,3.168 13.36317,12.3837 21.21807,20.47934 l 14.28164,14.71935 10.80317,-1.95639 c 20.94149,-3.79238 24.33281,-4.16398 33.84319,-3.7083 28.80086,1.37992 54.71501,10.44351 75.997,26.58027 8.8732,6.72812 22.1379,20.03753 28.8387,28.9361 6.1293,8.13952 14.6337,24.83438 18.3911,36.10319 3.3359,10.0043 6.8532,29.35303 6.8532,37.69877 0,4.42466 0.3473,5.71555 1.6751,6.22506 0.9213,0.35354 7.9413,0.36148 15.6,0.0177 40.3276,-1.81052 83.4927,7.22129 121.4449,25.41096 27.1759,13.02485 49.1382,28.55536 70.4336,49.80679 32.6224,32.55505 55.0107,71.3138 67.4715,116.80721 3.0277,11.05406 3.5287,13.50881 6.2696,30.72 2.0807,13.06518 2.3603,56.92574 0.4407,69.12 -5.0019,31.77337 -12.0844,54.94897 -24.6439,80.64 -14.6798,30.02808 -35.0213,56.82009 -60.1946,79.28256 -36.9613,32.98099 -90.3552,57.53349 -135.6169,62.36189 -5.808,0.6195 -11.8125,1.511 -13.3432,1.981 -1.6126,0.4951 -195.23333,0.7974 -460.32005,0.7189 -384.26809,-0.1141 -458.68974,-0.3478 -464.73675,-1.4594 z M 477.14867,917.25007 c 20.04431,-2.46119 37.11394,-5.87694 67.65133,-13.53749 26.5954,-6.67166 35.21332,-9.44725 49.20256,-15.84668 3.30141,-1.51025 6.25855,-2.7459 6.57142,-2.7459 0.82826,0 15.17868,-7.09379 15.74602,-7.78367 0.264,-0.32102 2.59876,-1.51426 5.18836,-2.65165 2.58959,-1.13738 4.53359,-2.21184 4.32,-2.38769 -0.51573,-0.42459 -17.20606,1.59648 -34.46836,4.17384 -7.656,1.14308 -15.864,2.31728 -18.24,2.60931 -2.376,0.29204 -4.79008,0.90135 -5.36463,1.35402 -0.57455,0.45268 -4.46255,1.28984 -8.64,1.86036 -4.17745,0.57052 -9.10737,1.47718 -10.95537,2.0148 -7.58265,2.20594 -38.42923,4.49369 -61.92,4.59232 -23.74553,0.0997 -34.64621,2.49152 -49.13443,10.78105 -6.54386,3.74411 -9.90557,7.25868 -9.90557,10.35598 0,2.01807 4.99216,5.35556 10.35755,6.92451 7.16019,2.09378 23.88829,2.215 39.59112,0.28689 z m -60.37435,-16.71149 c 18.32231,-3.79553 32.03815,-8.02862 41.14568,-12.69872 3.71866,-1.90683 5.32224,-2.15008 11.52,-1.74752 25.59228,1.66228 70.3483,-2.31593 99.36,-8.83177 12.55769,-2.82039 43.71527,-11.71674 56.64,-16.1723 45.86739,-15.81193 88.02858,-37.5088 113.87596,-58.60252 8.49085,-6.92928 21.43721,-19.68573 25.38676,-25.01437 5.96911,-8.05339 3.98603,-7.67717 -8.20752,1.55711 -18.44019,13.96491 -36.74275,24.85637 -59.81788,35.59637 -67.94161,31.62244 -162.80968,50.8861 -217.19381,44.10281 -14.48755,-1.80703 -20.28212,-1.8146 -25.33137,-0.0331 -3.80266,1.34166 -42.88901,27.64999 -51.75206,34.8334 -4.50567,3.6518 -5.46835,5.20281 -4.61292,7.43205 0.77713,2.02519 7.94453,1.86611 18.98716,-0.42142 z M 600.90715,737.1695 c 9.02299,-3.94804 13.49285,-9.13701 13.49285,-15.66354 0,-2.75159 0.40645,-3.4677 2.16,-3.80558 1.188,-0.22892 4.752,-0.91217 7.92,-1.51834 9.97887,-1.90936 17.71625,-4.73574 36,-13.1504 43.70558,-20.11446 60.94202,-26.63471 78.24,-29.5968 19.52244,-3.343 37.21729,0.26478 52.46219,10.69646 7.44423,5.09389 9.58089,5.12864 10.80825,0.17574 0.73529,-2.96718 0.45855,-4.35447 -1.7824,-8.93479 -3.17379,-6.487 -8.52585,-10.73005 -17.72036,-14.04849 -17.71179,-6.39246 -45.97948,-0.0634 -99.47228,22.27168 -25.84776,10.79232 -35.48316,14.12385 -43.08031,14.89544 -9.99741,1.01536 -31.44925,-3.05317 -37.89748,-7.18759 -0.85984,-0.55131 -1.61764,-4.05964 -2.16647,-10.03011 -0.88313,-9.60703 -2.37292,-15.27533 -3.52626,-13.41661 -0.36569,0.58935 -1.52888,1.22271 -2.58488,1.40748 -2.5759,0.45072 -2.18526,-1.69794 1.8588,-10.22405 11.40072,-24.03617 49.22804,-60.73289 84.94856,-82.40957 27.93334,-16.9511 53.76988,-25.40501 74.47264,-24.36799 17.31166,0.86716 29.10262,6.32224 34.70788,16.05756 4.59289,7.97702 7.76822,11.38748 11.19976,12.02907 4.78595,0.89481 17.66756,-2.19662 26.09236,-6.26185 7.36116,-3.552 17.00408,-11.64315 15.57696,-13.07027 -0.34282,-0.3428 -4.63588,-0.12866 -9.54013,0.4759 -23.92464,2.94924 -30.76145,1.19081 -42.51683,-10.93536 -4.224,-4.35722 -9.5618,-8.87131 -11.86178,-10.03129 -5.23576,-2.64064 -15.26547,-4.80771 -22.35217,-4.82953 -26.27646,-0.0809 -71.90847,20.8682 -109.83861,50.42556 C 597.60902,624.22672 566.4,665.91045 566.4,693.11618 c 0,2.11733 -1.21521,5.93036 -2.9814,9.35493 -4.28243,8.30347 -4.82912,16.41431 -1.58413,23.50232 2.59234,5.66238 5.90859,8.57615 12.4221,10.91442 10.07714,3.61757 18.81552,3.70992 26.65058,0.28165 z M 870.79001,549.11296 c 9.7295,-4.25468 21.36199,-9.33182 25.84999,-11.28253 6.62406,-2.87916 9.37114,-4.77073 14.5944,-10.04934 10.67739,-10.79055 14.96437,-18.27954 11.91338,-20.81164 -2.073,-1.72044 -4.56372,-0.7025 -14.98778,6.12543 -5.016,3.28556 -14.88957,9.72658 -21.94127,14.31339 -19.35421,12.58899 -37.57873,26.95727 -37.57873,29.62717 0,1.49376 3.38972,0.28135 22.15001,-7.92248 z"
       style="fill:#2b9d0b;stroke-width:0.95999998" /><path
       inkscape:connector-curvature="0"
       id="path124"
       d="m 189.12,1028.485 c -29.26557,-5.3801 -44.59245,-10.7962 -66.35183,-23.4471 C 106.14738,995.37466 84.997226,976.64189 74.086073,961.92 67.598431,953.16655 58.046975,937.97888 57.08911,934.8933 56.704384,933.65399 55.132978,930.13471 53.597096,927.07267 41.759089,903.47171 35.721178,869.31492 38.223192,840.10167 44.537653,766.37474 94.339181,706.05886 166.32,684.96042 c 4.62,-1.35417 8.43295,-2.77225 8.47322,-3.15127 0.0403,-0.37904 0.1714,-9.11315 0.2914,-19.40915 0.29818,-25.58579 3.8461,-41.20703 13.98414,-61.57128 7.93506,-15.9391 14.20542,-24.59694 27.40159,-37.83484 21.51075,-21.57877 45.51803,-34.39942 73.6519,-39.33244 5.12724,-0.89901 9.98134,-2.12662 10.78691,-2.728 0.80556,-0.60139 3.33955,-7.35744 5.63108,-15.01344 5.78034,-19.31214 11.20136,-33.55973 19.17652,-50.4 8.88316,-18.75757 15.07177,-29.44761 27.2321,-47.04 33.21392,-48.05068 75.1305,-84.48079 127.05114,-110.4214 23.55193,-11.76703 52.12561,-21.95855 75.35725,-26.87808 6.1699,-1.30653 11.60002,-2.61162 12.06695,-2.9002 1.0389,-0.64207 20.16832,-2.9876 36.4158,-4.46508 35.87883,-3.26267 81.98027,1.14103 115.86141,11.0673 6.23623,1.82705 12.61147,3.61144 14.16723,3.96532 3.2622,0.74203 15.35971,5.40256 31.35157,12.07811 12.6242,5.26977 41.15801,20.51821 48.37979,25.85411 2.64,1.9506 9.09344,6.50293 14.34097,10.11632 5.24753,3.61338 11.78996,8.54389 14.53874,10.95669 2.74878,2.4128 8.11917,6.97891 11.93422,10.14691 3.81504,3.168 13.36317,12.3837 21.21807,20.47934 l 14.28164,14.71935 10.80317,-1.95639 c 20.94149,-3.79238 24.33281,-4.16398 33.84319,-3.7083 28.80086,1.37992 54.71501,10.44351 75.997,26.58027 8.8732,6.72812 22.1379,20.03753 28.8387,28.9361 6.1293,8.13952 14.6337,24.83438 18.3911,36.10319 3.3359,10.0043 6.8532,29.35303 6.8532,37.69877 0,4.42466 0.3473,5.71555 1.6751,6.22506 0.9213,0.35354 7.9413,0.36148 15.6,0.0177 40.3276,-1.81052 83.4927,7.22129 121.4449,25.41096 27.1759,13.02485 49.1382,28.55536 70.4336,49.80679 32.6224,32.55505 55.0107,71.3138 67.4715,116.80721 3.0277,11.05406 3.5287,13.50881 6.2696,30.72 2.0807,13.06518 2.3603,56.92574 0.4407,69.12 -5.0019,31.77337 -12.0844,54.94897 -24.6439,80.64 -14.6798,30.02808 -35.0213,56.82009 -60.1946,79.28256 -36.9613,32.98099 -90.3552,57.53349 -135.6169,62.36189 -5.808,0.6195 -11.8125,1.511 -13.3432,1.981 -1.6126,0.4951 -195.23333,0.7974 -460.32005,0.7189 -384.26809,-0.1141 -458.68974,-0.3478 -464.73675,-1.4594 z M 448.65563,924.46282 c 30.29782,-1.79823 56.1202,-5.11227 86.54437,-11.10713 35.85366,-7.06469 76.70105,-19.22969 107.33185,-31.96511 15.87881,-6.60195 43.43633,-20.16934 57.73906,-28.42666 29.09238,-16.79576 55.71255,-37.3706 77.83484,-60.15889 30.95745,-31.88945 44.64649,-58.75474 44.60006,-87.52948 -0.0262,-16.25 -4.67723,-28.51411 -14.06874,-37.09743 -9.31877,-8.51683 -20.56899,-12.4456 -37.75707,-13.18544 -22.90596,-0.98595 -45.9541,5.48206 -100.8,28.28754 -29.49255,12.26331 -32.45229,13.18068 -42.55875,13.19106 -8.3668,0.009 -8.51573,-0.0326 -11.28,-3.12643 -2.30494,-2.57967 -2.80125,-3.98715 -2.80125,-7.94398 0,-5.74836 2.66218,-13.74804 6.94881,-20.88073 8.79649,-14.63682 35.06587,-43.5381 51.61119,-56.78205 27.95081,-22.37365 57.89218,-35.61099 80.43718,-35.56201 9.78392,0.0213 16.53947,3.19355 21.02795,9.87436 5.48952,8.17079 5.215,20.41335 -0.6565,29.2777 -4.06062,6.13041 -4.50269,8.45611 -2.19648,11.55543 1.56674,2.10555 2.78662,2.60805 6.91653,2.84908 6.13357,0.35797 7.52681,-0.40487 22.79201,-12.47919 16.01161,-12.6647 23.26761,-17.77026 35.35931,-24.87995 19.76668,-11.62243 41.15279,-20.12606 66.24,-26.33858 18.91487,-4.68403 18.39704,-4.07393 29.26919,-34.48468 7.29025,-20.39176 8.19233,-25.77001 4.83235,-28.81075 -2.91497,-2.63802 -8.38064,-1.39814 -21.05955,4.77733 -22.74131,11.07653 -47.37697,26.70495 -74.96199,47.55453 -13.51821,10.21748 -15.48803,11.25118 -22.10992,11.60265 l -5.24293,0.27827 -4.29609,-6.19614 c -12.95153,-18.67965 -25.83108,-25.00371 -50.93862,-25.01165 -19.5849,-0.006 -38.19262,4.97597 -63.01252,16.87141 -34.47775,16.52418 -63.64277,37.4225 -95.15548,68.1841 -26.31565,25.68842 -43.77755,50.67275 -51.66374,73.92 -2.20283,6.49361 -2.61876,9.38544 -2.69249,18.72 -0.0743,9.40574 0.21983,11.70445 1.98675,15.52864 2.59608,5.6187 9.01415,12.6566 14.44352,15.83843 9.65467,5.65802 26.63369,7.55136 41.7606,4.65676 14.6935,-2.81168 21.84139,-5.79101 67.96092,-28.327 47.47252,-23.19711 60.85031,-27.98871 78.38407,-28.07528 15.16337,-0.0749 25.07341,5.42077 29.0786,16.12558 6.14167,16.41507 -2.78906,40.69725 -22.77737,61.93051 -14.95199,15.88325 -31.05838,27.1917 -57.3253,40.24865 -35.99455,17.89243 -76.44404,31.43964 -120,40.19001 -44.14216,8.86814 -78.76894,10.77325 -107.52,5.91558 -6.336,-1.0705 -12.52892,-1.94762 -13.76204,-1.94912 -5.30897,-0.007 -22.06888,10.24306 -62.55796,38.25754 -22.305,15.43288 -26.53931,18.77622 -28.44348,22.45847 -1.29434,2.503 -1.283,3.02941 0.11121,5.15723 2.2136,3.37837 3.96438,3.82183 22.13745,5.6073 8.95115,0.87943 16.70682,1.75334 17.23482,1.94204 2.04773,0.73181 27.37874,0.44792 43.05563,-0.48252 z"
       style="fill:#25611c;stroke-width:0.95999998" /><path
       inkscape:connector-curvature="0"
       id="path122"
       d="m 189.12,1028.485 c -29.26557,-5.3801 -44.59245,-10.7962 -66.35183,-23.4471 C 106.14738,995.37466 84.997226,976.64189 74.086073,961.92 67.598431,953.16655 58.046975,937.97888 57.08911,934.8933 56.704384,933.65399 55.132978,930.13471 53.597096,927.07267 41.759089,903.47171 35.721178,869.31492 38.223192,840.10167 44.537653,766.37474 94.339181,706.05886 166.32,684.96042 c 4.62,-1.35417 8.43295,-2.77225 8.47322,-3.15127 0.0403,-0.37904 0.1714,-9.11315 0.2914,-19.40915 0.29818,-25.58579 3.8461,-41.20703 13.98414,-61.57128 7.93506,-15.9391 14.20542,-24.59694 27.40159,-37.83484 21.51075,-21.57877 45.51803,-34.39942 73.6519,-39.33244 5.12724,-0.89901 9.98134,-2.12662 10.78691,-2.728 0.80556,-0.60139 3.33955,-7.35744 5.63108,-15.01344 5.78034,-19.31214 11.20136,-33.55973 19.17652,-50.4 8.88316,-18.75757 15.07177,-29.44761 27.2321,-47.04 33.21392,-48.05068 75.1305,-84.48079 127.05114,-110.4214 23.55193,-11.76703 52.12561,-21.95855 75.35725,-26.87808 6.1699,-1.30653 11.60002,-2.61162 12.06695,-2.9002 1.0389,-0.64207 20.16832,-2.9876 36.4158,-4.46508 35.87883,-3.26267 81.98027,1.14103 115.86141,11.0673 6.23623,1.82705 12.61147,3.61144 14.16723,3.96532 3.2622,0.74203 15.35971,5.40256 31.35157,12.07811 12.6242,5.26977 41.15801,20.51821 48.37979,25.85411 2.64,1.9506 9.09344,6.50293 14.34097,10.11632 5.24753,3.61338 11.78996,8.54389 14.53874,10.95669 2.74878,2.4128 8.11917,6.97891 11.93422,10.14691 3.81504,3.168 13.36317,12.3837 21.21807,20.47934 l 14.28164,14.71935 10.80317,-1.95639 c 20.94149,-3.79238 24.33281,-4.16398 33.84319,-3.7083 28.80086,1.37992 54.71501,10.44351 75.997,26.58027 8.8732,6.72812 22.1379,20.03753 28.8387,28.9361 6.1293,8.13952 14.6337,24.83438 18.3911,36.10319 3.3359,10.0043 6.8532,29.35303 6.8532,37.69877 0,4.42466 0.3473,5.71555 1.6751,6.22506 0.9213,0.35354 7.9413,0.36148 15.6,0.0177 40.3276,-1.81052 83.4927,7.22129 121.4449,25.41096 27.1759,13.02485 49.1382,28.55536 70.4336,49.80679 32.6224,32.55505 55.0107,71.3138 67.4715,116.80721 3.0277,11.05406 3.5287,13.50881 6.2696,30.72 2.0807,13.06518 2.3603,56.92574 0.4407,69.12 -5.0019,31.77337 -12.0844,54.94897 -24.6439,80.64 -14.6798,30.02808 -35.0213,56.82009 -60.1946,79.28256 -36.9613,32.98099 -90.3552,57.53349 -135.6169,62.36189 -5.808,0.6195 -11.8125,1.511 -13.3432,1.981 -1.6126,0.4951 -195.23333,0.7974 -460.32005,0.7189 -384.26809,-0.1141 -458.68974,-0.3478 -464.73675,-1.4594 z m 266.4,-100.45167 c 5.28,-0.80832 16.296,-2.185 24.48,-3.05931 30.86052,-3.29688 60.81829,-8.73315 91.2,-16.54954 7.128,-1.83384 14.256,-3.65507 15.84,-4.04718 1.584,-0.3921 4.392,-1.21682 6.24,-1.8327 1.848,-0.61587 9.84,-3.24581 17.76,-5.8443 61.88288,-20.3033 115.04984,-49.77524 155.55018,-86.22588 40.36805,-36.33155 60.92901,-72.26868 60.92966,-106.49485 4.1e-4,-22.43669 -9.36159,-39.20797 -26.43514,-47.35642 -10.55961,-5.03963 -18.53834,-6.65369 -33.0847,-6.69286 -24.41739,-0.0657 -48.10295,6.87464 -103.0309,30.19031 -22.613,9.59872 -32.84226,12.9994 -39.10215,12.9994 -7.66506,0 -9.09183,-1.3498 -8.96347,-8.4799 0.17098,-9.49677 6.27218,-19.9692 23.30393,-40.0001 15.60751,-18.35587 30.67039,-31.96609 49.55259,-44.77376 17.95247,-12.17704 35.57025,-19.67688 54.85488,-23.35155 8.27746,-1.57727 9.09256,-1.57969 14.37879,-0.0429 11.2334,3.26563 15.19031,8.72788 14.61244,20.17145 -0.39364,7.79509 -0.47671,7.94629 -12.56611,22.86726 -4.092,5.05043 -7.44,9.62347 -7.44,10.16229 0,2.17126 4.2985,2.96719 16.01689,2.96577 14.75288,-0.002 13.9314,0.36026 30.16985,-13.29687 25.00638,-21.03133 55.0737,-38.32925 82.45326,-47.43596 13.9296,-4.63313 28.90069,-8.38572 33.45507,-8.38572 5.1806,0 7.4072,-1.49795 9.51001,-6.39786 1.69343,-3.94597 6.29701,-16.35135 19.00091,-51.20214 1.25105,-3.432 3.37728,-9.23263 4.72497,-12.89028 2.24,-6.07943 2.48036,-10.14972 0.59937,-10.14972 -0.40716,0 -5.88605,2.19269 -12.17531,4.87264 -34.83378,14.84324 -63.66131,31.87857 -97.12621,57.39574 -22.14799,16.88796 -23.15199,17.59713 -24.09118,17.01668 -0.47964,-0.29643 -2.42553,-3.81011 -4.3242,-7.80815 -6.22682,-13.11194 -17.04354,-21.56351 -33.25343,-25.98237 -8.54919,-2.33053 -32.08018,-2.40929 -42.24,-0.14138 -34.61039,7.72583 -76.45864,30.25458 -115.37754,62.11279 -13.75859,11.2625 -35.80674,33.06335 -46.17193,45.65405 -31.93862,38.79615 -42.96981,74.54848 -29.45382,95.46036 5.92077,9.16058 13.9517,14.10999 28.28329,17.43079 23.51391,5.44847 46.71664,-1.09394 101.9634,-28.75036 40.9908,-20.51992 59.32465,-27.01792 76.2359,-27.02 28.1552,-0.004 33.2163,25.82568 11.38034,58.07921 -5.28349,7.80415 -22.62246,24.95597 -31.65964,31.31792 -27.84882,19.60487 -70.63172,38.65485 -112.8,50.22655 -21.95814,6.0257 -26.92531,7.24314 -42.72,10.47049 -6.50021,1.32821 -10.94295,2.08351 -31.68,5.38586 -3.432,0.54655 -14.45727,1.48938 -24.50061,2.09517 -21.40199,1.29094 -40.86337,0.15632 -52.29939,-3.04911 -13.05543,-3.65935 -12.18767,-3.78469 -23.72282,3.42687 -11.52747,7.20678 -38.56331,25.43025 -59.79718,40.3062 -7.656,5.36361 -19.88803,13.74705 -27.1823,18.62987 -7.29427,4.88283 -13.51322,9.53174 -13.8199,10.33091 -0.81632,2.12733 1.09955,2.91856 9.74102,4.02288 4.25765,0.5441 14.43718,1.87148 22.62118,2.94974 8.184,1.07826 16.392,2.13536 18.24,2.34911 8.15861,0.94371 52.78325,-0.23038 61.92,-1.62913 z"
       style="fill:#323232;stroke-width:0.95999998" /></g></svg>